<mxfile host="app.diagrams.net" modified="2024-01-04T18:29:56.983Z" agent="Mozilla/5.0 (Windows NT 10.0; Win64; x64) AppleWebKit/537.36 (KHTML, like Gecko) Chrome/120.0.0.0 Safari/537.36" etag="a2mL170M1FkXGv_L7M-V" version="22.1.15" type="github">
  <diagram name="Página-1" id="AjljVBGfI08eAYrzzpYy">
    <mxGraphModel dx="989" dy="532" grid="1" gridSize="10" guides="1" tooltips="1" connect="1" arrows="1" fold="1" page="0" pageScale="1" pageWidth="827" pageHeight="1169" math="0" shadow="0">
      <root>
        <mxCell id="0" />
        <mxCell id="1" parent="0" />
        <mxCell id="5U4P6vyGd9JxCdFY6Yn8-1" value="Conceitual" style="rounded=1;whiteSpace=wrap;html=1;fillColor=#0050ef;strokeColor=#001DBC;fontColor=#ffffff;" vertex="1" parent="1">
          <mxGeometry x="340" y="40" width="120" height="40" as="geometry" />
        </mxCell>
        <mxCell id="5U4P6vyGd9JxCdFY6Yn8-2" value="Lógico" style="rounded=1;whiteSpace=wrap;html=1;fillColor=#0050ef;strokeColor=#001DBC;fontColor=#ffffff;" vertex="1" parent="1">
          <mxGeometry x="344" y="600" width="120" height="40" as="geometry" />
        </mxCell>
        <mxCell id="5U4P6vyGd9JxCdFY6Yn8-13" style="edgeStyle=orthogonalEdgeStyle;rounded=0;orthogonalLoop=1;jettySize=auto;html=1;entryX=0;entryY=0.5;entryDx=0;entryDy=0;endArrow=none;endFill=0;" edge="1" parent="1" source="5U4P6vyGd9JxCdFY6Yn8-3" target="5U4P6vyGd9JxCdFY6Yn8-12">
          <mxGeometry relative="1" as="geometry" />
        </mxCell>
        <mxCell id="5U4P6vyGd9JxCdFY6Yn8-40" style="edgeStyle=orthogonalEdgeStyle;rounded=0;orthogonalLoop=1;jettySize=auto;html=1;entryX=0.5;entryY=0;entryDx=0;entryDy=0;endArrow=none;endFill=0;" edge="1" parent="1" source="5U4P6vyGd9JxCdFY6Yn8-3" target="5U4P6vyGd9JxCdFY6Yn8-39">
          <mxGeometry relative="1" as="geometry" />
        </mxCell>
        <mxCell id="5U4P6vyGd9JxCdFY6Yn8-3" value="Usuario" style="rounded=1;whiteSpace=wrap;html=1;" vertex="1" parent="1">
          <mxGeometry x="200" y="125" width="100" height="40" as="geometry" />
        </mxCell>
        <mxCell id="5U4P6vyGd9JxCdFY6Yn8-6" style="edgeStyle=orthogonalEdgeStyle;rounded=0;orthogonalLoop=1;jettySize=auto;html=1;entryX=0;entryY=0.5;entryDx=0;entryDy=0;endArrow=none;endFill=0;" edge="1" parent="1" source="5U4P6vyGd9JxCdFY6Yn8-4" target="5U4P6vyGd9JxCdFY6Yn8-3">
          <mxGeometry relative="1" as="geometry" />
        </mxCell>
        <mxCell id="5U4P6vyGd9JxCdFY6Yn8-4" value="NomeCompleto" style="ellipse;whiteSpace=wrap;html=1;" vertex="1" parent="1">
          <mxGeometry x="30" y="120" width="120" height="50" as="geometry" />
        </mxCell>
        <mxCell id="5U4P6vyGd9JxCdFY6Yn8-7" style="edgeStyle=orthogonalEdgeStyle;rounded=0;orthogonalLoop=1;jettySize=auto;html=1;entryX=0;entryY=0.5;entryDx=0;entryDy=0;endArrow=none;endFill=0;" edge="1" parent="1" source="5U4P6vyGd9JxCdFY6Yn8-5" target="5U4P6vyGd9JxCdFY6Yn8-3">
          <mxGeometry relative="1" as="geometry" />
        </mxCell>
        <mxCell id="5U4P6vyGd9JxCdFY6Yn8-5" value="CPF/CNPJ" style="ellipse;whiteSpace=wrap;html=1;" vertex="1" parent="1">
          <mxGeometry x="30" y="190" width="120" height="50" as="geometry" />
        </mxCell>
        <mxCell id="5U4P6vyGd9JxCdFY6Yn8-9" style="edgeStyle=orthogonalEdgeStyle;rounded=0;orthogonalLoop=1;jettySize=auto;html=1;entryX=0;entryY=0.5;entryDx=0;entryDy=0;endArrow=none;endFill=0;" edge="1" parent="1" source="5U4P6vyGd9JxCdFY6Yn8-8" target="5U4P6vyGd9JxCdFY6Yn8-3">
          <mxGeometry relative="1" as="geometry" />
        </mxCell>
        <mxCell id="5U4P6vyGd9JxCdFY6Yn8-8" value="Email" style="ellipse;whiteSpace=wrap;html=1;" vertex="1" parent="1">
          <mxGeometry x="30" y="260" width="120" height="50" as="geometry" />
        </mxCell>
        <mxCell id="5U4P6vyGd9JxCdFY6Yn8-11" style="edgeStyle=orthogonalEdgeStyle;rounded=0;orthogonalLoop=1;jettySize=auto;html=1;entryX=0;entryY=0.5;entryDx=0;entryDy=0;endArrow=none;endFill=0;" edge="1" parent="1" source="5U4P6vyGd9JxCdFY6Yn8-10" target="5U4P6vyGd9JxCdFY6Yn8-3">
          <mxGeometry relative="1" as="geometry" />
        </mxCell>
        <mxCell id="5U4P6vyGd9JxCdFY6Yn8-10" value="Senha" style="ellipse;whiteSpace=wrap;html=1;" vertex="1" parent="1">
          <mxGeometry x="30" y="330" width="120" height="50" as="geometry" />
        </mxCell>
        <mxCell id="5U4P6vyGd9JxCdFY6Yn8-12" value="possui" style="rhombus;whiteSpace=wrap;html=1;" vertex="1" parent="1">
          <mxGeometry x="362" y="116.25" width="76" height="57.5" as="geometry" />
        </mxCell>
        <mxCell id="5U4P6vyGd9JxCdFY6Yn8-19" style="edgeStyle=orthogonalEdgeStyle;rounded=0;orthogonalLoop=1;jettySize=auto;html=1;entryX=0;entryY=0.5;entryDx=0;entryDy=0;endArrow=none;endFill=0;" edge="1" parent="1" source="5U4P6vyGd9JxCdFY6Yn8-14" target="5U4P6vyGd9JxCdFY6Yn8-18">
          <mxGeometry relative="1" as="geometry" />
        </mxCell>
        <mxCell id="5U4P6vyGd9JxCdFY6Yn8-14" value="TipoUsuario" style="rounded=1;whiteSpace=wrap;html=1;" vertex="1" parent="1">
          <mxGeometry x="500" y="125" width="100" height="40" as="geometry" />
        </mxCell>
        <mxCell id="5U4P6vyGd9JxCdFY6Yn8-15" style="edgeStyle=orthogonalEdgeStyle;rounded=0;orthogonalLoop=1;jettySize=auto;html=1;entryX=0;entryY=0.5;entryDx=0;entryDy=0;endArrow=none;endFill=0;" edge="1" parent="1" source="5U4P6vyGd9JxCdFY6Yn8-12" target="5U4P6vyGd9JxCdFY6Yn8-14">
          <mxGeometry relative="1" as="geometry" />
        </mxCell>
        <mxCell id="5U4P6vyGd9JxCdFY6Yn8-16" value="1" style="text;html=1;align=center;verticalAlign=middle;resizable=0;points=[];autosize=1;strokeColor=none;fillColor=none;" vertex="1" parent="1">
          <mxGeometry x="478" y="124" width="30" height="30" as="geometry" />
        </mxCell>
        <mxCell id="5U4P6vyGd9JxCdFY6Yn8-17" value="N" style="text;html=1;align=center;verticalAlign=middle;resizable=0;points=[];autosize=1;strokeColor=none;fillColor=none;" vertex="1" parent="1">
          <mxGeometry x="293" y="123" width="30" height="30" as="geometry" />
        </mxCell>
        <mxCell id="5U4P6vyGd9JxCdFY6Yn8-18" value="Nome" style="ellipse;whiteSpace=wrap;html=1;" vertex="1" parent="1">
          <mxGeometry x="630" y="120" width="110" height="50" as="geometry" />
        </mxCell>
        <mxCell id="5U4P6vyGd9JxCdFY6Yn8-27" style="edgeStyle=orthogonalEdgeStyle;rounded=0;orthogonalLoop=1;jettySize=auto;html=1;entryX=0;entryY=0.5;entryDx=0;entryDy=0;endArrow=none;endFill=0;" edge="1" parent="1" source="5U4P6vyGd9JxCdFY6Yn8-20" target="5U4P6vyGd9JxCdFY6Yn8-21">
          <mxGeometry relative="1" as="geometry" />
        </mxCell>
        <mxCell id="5U4P6vyGd9JxCdFY6Yn8-20" value="Transferencia" style="rounded=1;whiteSpace=wrap;html=1;" vertex="1" parent="1">
          <mxGeometry x="410" y="250" width="100" height="40" as="geometry" />
        </mxCell>
        <mxCell id="5U4P6vyGd9JxCdFY6Yn8-21" value="Valor" style="ellipse;whiteSpace=wrap;html=1;" vertex="1" parent="1">
          <mxGeometry x="560" y="245" width="110" height="50" as="geometry" />
        </mxCell>
        <mxCell id="5U4P6vyGd9JxCdFY6Yn8-28" style="edgeStyle=orthogonalEdgeStyle;rounded=0;orthogonalLoop=1;jettySize=auto;html=1;entryX=1;entryY=0.5;entryDx=0;entryDy=0;endArrow=none;endFill=0;" edge="1" parent="1" source="5U4P6vyGd9JxCdFY6Yn8-24" target="5U4P6vyGd9JxCdFY6Yn8-20">
          <mxGeometry relative="1" as="geometry" />
        </mxCell>
        <mxCell id="5U4P6vyGd9JxCdFY6Yn8-24" value="Data" style="ellipse;whiteSpace=wrap;html=1;" vertex="1" parent="1">
          <mxGeometry x="560" y="300" width="110" height="50" as="geometry" />
        </mxCell>
        <mxCell id="5U4P6vyGd9JxCdFY6Yn8-29" style="edgeStyle=orthogonalEdgeStyle;rounded=0;orthogonalLoop=1;jettySize=auto;html=1;entryX=1;entryY=0.5;entryDx=0;entryDy=0;endArrow=none;endFill=0;" edge="1" parent="1" source="5U4P6vyGd9JxCdFY6Yn8-25" target="5U4P6vyGd9JxCdFY6Yn8-20">
          <mxGeometry relative="1" as="geometry" />
        </mxCell>
        <mxCell id="5U4P6vyGd9JxCdFY6Yn8-25" value="Destinatario" style="ellipse;whiteSpace=wrap;html=1;" vertex="1" parent="1">
          <mxGeometry x="560" y="360" width="110" height="50" as="geometry" />
        </mxCell>
        <mxCell id="5U4P6vyGd9JxCdFY6Yn8-30" style="edgeStyle=orthogonalEdgeStyle;rounded=0;orthogonalLoop=1;jettySize=auto;html=1;entryX=1;entryY=0.5;entryDx=0;entryDy=0;endArrow=none;endFill=0;" edge="1" parent="1" source="5U4P6vyGd9JxCdFY6Yn8-26" target="5U4P6vyGd9JxCdFY6Yn8-20">
          <mxGeometry relative="1" as="geometry" />
        </mxCell>
        <mxCell id="5U4P6vyGd9JxCdFY6Yn8-26" value="Remetente" style="ellipse;whiteSpace=wrap;html=1;" vertex="1" parent="1">
          <mxGeometry x="560" y="420" width="110" height="50" as="geometry" />
        </mxCell>
        <mxCell id="5U4P6vyGd9JxCdFY6Yn8-31" value="Numero" style="ellipse;whiteSpace=wrap;html=1;" vertex="1" parent="1">
          <mxGeometry x="272.98" y="360" width="90" height="50" as="geometry" />
        </mxCell>
        <mxCell id="5U4P6vyGd9JxCdFY6Yn8-37" style="edgeStyle=orthogonalEdgeStyle;rounded=0;orthogonalLoop=1;jettySize=auto;html=1;entryX=0;entryY=0.5;entryDx=0;entryDy=0;exitX=0;exitY=0.5;exitDx=0;exitDy=0;endArrow=none;endFill=0;" edge="1" parent="1" source="5U4P6vyGd9JxCdFY6Yn8-35" target="5U4P6vyGd9JxCdFY6Yn8-31">
          <mxGeometry relative="1" as="geometry" />
        </mxCell>
        <mxCell id="5U4P6vyGd9JxCdFY6Yn8-38" style="edgeStyle=orthogonalEdgeStyle;rounded=0;orthogonalLoop=1;jettySize=auto;html=1;entryX=0;entryY=0.5;entryDx=0;entryDy=0;exitX=0;exitY=0.5;exitDx=0;exitDy=0;endArrow=none;endFill=0;" edge="1" parent="1" source="5U4P6vyGd9JxCdFY6Yn8-35" target="5U4P6vyGd9JxCdFY6Yn8-36">
          <mxGeometry relative="1" as="geometry" />
        </mxCell>
        <mxCell id="5U4P6vyGd9JxCdFY6Yn8-41" style="edgeStyle=orthogonalEdgeStyle;rounded=0;orthogonalLoop=1;jettySize=auto;html=1;entryX=0.5;entryY=1;entryDx=0;entryDy=0;endArrow=none;endFill=0;" edge="1" parent="1" source="5U4P6vyGd9JxCdFY6Yn8-35" target="5U4P6vyGd9JxCdFY6Yn8-39">
          <mxGeometry relative="1" as="geometry" />
        </mxCell>
        <mxCell id="5U4P6vyGd9JxCdFY6Yn8-35" value="Conta" style="rounded=1;whiteSpace=wrap;html=1;" vertex="1" parent="1">
          <mxGeometry x="267.98" y="310" width="100" height="40" as="geometry" />
        </mxCell>
        <mxCell id="5U4P6vyGd9JxCdFY6Yn8-36" value="Saldo" style="ellipse;whiteSpace=wrap;html=1;" vertex="1" parent="1">
          <mxGeometry x="277.98" y="420" width="90" height="50" as="geometry" />
        </mxCell>
        <mxCell id="5U4P6vyGd9JxCdFY6Yn8-39" value="possui" style="rhombus;whiteSpace=wrap;html=1;" vertex="1" parent="1">
          <mxGeometry x="224" y="202.5" width="76" height="57.5" as="geometry" />
        </mxCell>
        <mxCell id="5U4P6vyGd9JxCdFY6Yn8-42" value="1" style="text;html=1;align=center;verticalAlign=middle;resizable=0;points=[];autosize=1;strokeColor=none;fillColor=none;" vertex="1" parent="1">
          <mxGeometry x="310" y="290" width="30" height="30" as="geometry" />
        </mxCell>
        <mxCell id="5U4P6vyGd9JxCdFY6Yn8-43" value="1" style="text;html=1;align=center;verticalAlign=middle;resizable=0;points=[];autosize=1;strokeColor=none;fillColor=none;" vertex="1" parent="1">
          <mxGeometry x="242.98000000000002" y="160" width="30" height="30" as="geometry" />
        </mxCell>
        <mxCell id="5U4P6vyGd9JxCdFY6Yn8-55" value="Conta" style="shape=table;startSize=30;container=1;collapsible=1;childLayout=tableLayout;fixedRows=1;rowLines=0;fontStyle=1;align=center;resizeLast=1;html=1;whiteSpace=wrap;" vertex="1" parent="1">
          <mxGeometry x="242.98" y="650" width="180" height="150" as="geometry" />
        </mxCell>
        <mxCell id="5U4P6vyGd9JxCdFY6Yn8-56" value="" style="shape=tableRow;horizontal=0;startSize=0;swimlaneHead=0;swimlaneBody=0;fillColor=none;collapsible=0;dropTarget=0;points=[[0,0.5],[1,0.5]];portConstraint=eastwest;top=0;left=0;right=0;bottom=0;html=1;" vertex="1" parent="5U4P6vyGd9JxCdFY6Yn8-55">
          <mxGeometry y="30" width="180" height="30" as="geometry" />
        </mxCell>
        <mxCell id="5U4P6vyGd9JxCdFY6Yn8-57" value="PK" style="shape=partialRectangle;connectable=0;fillColor=none;top=0;left=0;bottom=0;right=0;fontStyle=1;overflow=hidden;html=1;whiteSpace=wrap;" vertex="1" parent="5U4P6vyGd9JxCdFY6Yn8-56">
          <mxGeometry width="60" height="30" as="geometry">
            <mxRectangle width="60" height="30" as="alternateBounds" />
          </mxGeometry>
        </mxCell>
        <mxCell id="5U4P6vyGd9JxCdFY6Yn8-58" value="IdConta" style="shape=partialRectangle;connectable=0;fillColor=none;top=0;left=0;bottom=0;right=0;align=left;spacingLeft=6;fontStyle=5;overflow=hidden;html=1;whiteSpace=wrap;" vertex="1" parent="5U4P6vyGd9JxCdFY6Yn8-56">
          <mxGeometry x="60" width="120" height="30" as="geometry">
            <mxRectangle width="120" height="30" as="alternateBounds" />
          </mxGeometry>
        </mxCell>
        <mxCell id="5U4P6vyGd9JxCdFY6Yn8-59" value="" style="shape=tableRow;horizontal=0;startSize=0;swimlaneHead=0;swimlaneBody=0;fillColor=none;collapsible=0;dropTarget=0;points=[[0,0.5],[1,0.5]];portConstraint=eastwest;top=0;left=0;right=0;bottom=1;html=1;" vertex="1" parent="5U4P6vyGd9JxCdFY6Yn8-55">
          <mxGeometry y="60" width="180" height="30" as="geometry" />
        </mxCell>
        <mxCell id="5U4P6vyGd9JxCdFY6Yn8-60" value="PK,FK2" style="shape=partialRectangle;connectable=0;fillColor=none;top=0;left=0;bottom=0;right=0;fontStyle=1;overflow=hidden;html=1;whiteSpace=wrap;" vertex="1" parent="5U4P6vyGd9JxCdFY6Yn8-59">
          <mxGeometry width="60" height="30" as="geometry">
            <mxRectangle width="60" height="30" as="alternateBounds" />
          </mxGeometry>
        </mxCell>
        <mxCell id="5U4P6vyGd9JxCdFY6Yn8-61" value="Row 2" style="shape=partialRectangle;connectable=0;fillColor=none;top=0;left=0;bottom=0;right=0;align=left;spacingLeft=6;fontStyle=5;overflow=hidden;html=1;whiteSpace=wrap;" vertex="1" parent="5U4P6vyGd9JxCdFY6Yn8-59">
          <mxGeometry x="60" width="120" height="30" as="geometry">
            <mxRectangle width="120" height="30" as="alternateBounds" />
          </mxGeometry>
        </mxCell>
        <mxCell id="5U4P6vyGd9JxCdFY6Yn8-62" value="" style="shape=tableRow;horizontal=0;startSize=0;swimlaneHead=0;swimlaneBody=0;fillColor=none;collapsible=0;dropTarget=0;points=[[0,0.5],[1,0.5]];portConstraint=eastwest;top=0;left=0;right=0;bottom=0;html=1;" vertex="1" parent="5U4P6vyGd9JxCdFY6Yn8-55">
          <mxGeometry y="90" width="180" height="30" as="geometry" />
        </mxCell>
        <mxCell id="5U4P6vyGd9JxCdFY6Yn8-63" value="" style="shape=partialRectangle;connectable=0;fillColor=none;top=0;left=0;bottom=0;right=0;editable=1;overflow=hidden;html=1;whiteSpace=wrap;" vertex="1" parent="5U4P6vyGd9JxCdFY6Yn8-62">
          <mxGeometry width="60" height="30" as="geometry">
            <mxRectangle width="60" height="30" as="alternateBounds" />
          </mxGeometry>
        </mxCell>
        <mxCell id="5U4P6vyGd9JxCdFY6Yn8-64" value="Row 3" style="shape=partialRectangle;connectable=0;fillColor=none;top=0;left=0;bottom=0;right=0;align=left;spacingLeft=6;overflow=hidden;html=1;whiteSpace=wrap;" vertex="1" parent="5U4P6vyGd9JxCdFY6Yn8-62">
          <mxGeometry x="60" width="120" height="30" as="geometry">
            <mxRectangle width="120" height="30" as="alternateBounds" />
          </mxGeometry>
        </mxCell>
        <mxCell id="5U4P6vyGd9JxCdFY6Yn8-65" value="" style="shape=tableRow;horizontal=0;startSize=0;swimlaneHead=0;swimlaneBody=0;fillColor=none;collapsible=0;dropTarget=0;points=[[0,0.5],[1,0.5]];portConstraint=eastwest;top=0;left=0;right=0;bottom=0;html=1;" vertex="1" parent="5U4P6vyGd9JxCdFY6Yn8-55">
          <mxGeometry y="120" width="180" height="30" as="geometry" />
        </mxCell>
        <mxCell id="5U4P6vyGd9JxCdFY6Yn8-66" value="" style="shape=partialRectangle;connectable=0;fillColor=none;top=0;left=0;bottom=0;right=0;editable=1;overflow=hidden;html=1;whiteSpace=wrap;" vertex="1" parent="5U4P6vyGd9JxCdFY6Yn8-65">
          <mxGeometry width="60" height="30" as="geometry">
            <mxRectangle width="60" height="30" as="alternateBounds" />
          </mxGeometry>
        </mxCell>
        <mxCell id="5U4P6vyGd9JxCdFY6Yn8-67" value="Row 4" style="shape=partialRectangle;connectable=0;fillColor=none;top=0;left=0;bottom=0;right=0;align=left;spacingLeft=6;overflow=hidden;html=1;whiteSpace=wrap;" vertex="1" parent="5U4P6vyGd9JxCdFY6Yn8-65">
          <mxGeometry x="60" width="120" height="30" as="geometry">
            <mxRectangle width="120" height="30" as="alternateBounds" />
          </mxGeometry>
        </mxCell>
      </root>
    </mxGraphModel>
  </diagram>
</mxfile>
